<svg xmlns="http://www.w3.org/2000/svg" width="10rem" height="auto" viewBox="0 0 112 40" fill="none" id="svg-replaced-0" class="style-svg replaced-svg svg-replaced-0">
<path d="M54.4908 39.6999C53.1469 39.6999 51.7912 39.6999 50.3772 39.6999C50.3187 39.5112 50.2369 39.3068 50.1902 39.0945C49.8552 37.5611 49.5163 36.0239 49.1968 34.4866C48.8345 32.7292 48.4917 30.9639 48.1333 29.2025C48.0009 28.542 47.849 27.8854 47.7048 27.2249C47.3231 25.4674 46.9452 23.71 46.5595 21.9565C46.5323 21.8228 46.5595 21.642 46.3063 21.5987C46.2908 21.8149 46.2674 22.0233 46.2596 22.2356C46.1739 24.284 46.0843 26.3324 46.0025 28.3808C45.9791 28.9548 45.9791 29.5288 45.9479 30.1028C45.8622 31.8249 45.7688 33.5469 45.6792 35.269C45.6246 36.3187 45.574 37.3645 45.5155 38.4143C45.4922 38.835 45.5155 39.2675 45.2857 39.641C44.5806 39.8022 41.6668 39.9044 40.8059 39.7904C40.7903 39.637 40.7474 39.4719 40.7552 39.3107C40.8214 37.8639 40.876 36.4131 40.9773 34.9663C41.1058 33.0987 41.2305 31.2273 41.246 29.3558C41.2655 27.1069 41.4174 24.8659 41.5927 22.6249C41.7564 20.5332 41.8654 18.4377 42.0135 16.346C42.1031 15.0486 42.2355 13.759 42.3251 12.4616C42.4147 11.1406 42.6173 9.83133 42.8004 8.5221C42.9484 7.48415 43.0263 6.4344 43.1393 5.39252C43.151 5.27064 43.1743 5.14876 43.1977 5.00329C43.8249 4.74773 44.4754 4.85782 45.1065 4.8185C45.722 4.77919 46.3414 4.81064 46.9842 4.81064C47.0582 5.00329 47.14 5.15662 47.175 5.31782C47.3542 6.17492 47.5256 7.03201 47.697 7.88911C47.9619 9.21014 48.219 10.5351 48.4956 11.8522C49.08 14.6397 49.6682 17.4233 50.2681 20.2069C50.5992 21.7442 50.9576 23.2775 51.3082 24.8109C51.3355 24.9288 51.3744 25.0428 51.4173 25.1883C51.5926 24.9013 51.5887 24.9013 51.6393 24.2683C51.6666 23.9459 51.7055 23.6235 51.7328 23.2972C51.7601 22.9748 51.7718 22.6485 51.8029 22.3261C51.8341 22.0037 51.8769 21.6813 51.912 21.3589C51.9471 21.0365 51.9782 20.7141 52.0055 20.3878C52.0367 20.0378 52.06 19.6879 52.0912 19.342C52.1224 19.0196 52.1652 18.6972 52.1964 18.3708C52.2275 18.0484 52.2509 17.7221 52.2782 17.3997C52.3055 17.0773 52.3405 16.751 52.3717 16.4286C52.4028 16.1062 52.4418 15.7838 52.473 15.4575C52.5041 15.1351 52.5197 14.8088 52.5509 14.4864C52.582 14.164 52.621 13.8416 52.6522 13.5153C52.6833 13.1929 52.7145 12.8666 52.7418 12.5442C52.769 12.2218 52.7963 11.8954 52.8275 11.573C52.8586 11.2507 52.9015 10.9283 52.9326 10.6019C52.9638 10.252 52.9872 9.9021 53.0183 9.55612C53.0456 9.23373 53.0807 8.91133 53.1157 8.58501C53.1508 8.26261 53.1897 7.94022 53.2209 7.61782C53.2521 7.29543 53.2677 6.96911 53.2988 6.64671C53.33 6.32432 53.3767 6.00192 53.4157 5.67953C53.4507 5.36107 53.3845 5.02295 53.6144 4.70842C54.0468 4.57474 54.5181 4.66124 54.9817 4.64551C55.4764 4.62978 55.9711 4.63372 56.4698 4.63372C56.9372 4.63372 57.4008 4.63372 57.9228 4.63372C57.9267 4.82243 57.9384 4.96397 57.9345 5.10551C57.8761 7.18141 57.6852 9.24552 57.4592 11.3057C57.3463 12.3476 57.3229 13.3973 57.2567 14.4431C57.2489 14.5689 57.245 14.6948 57.2294 14.8166C57.1086 15.8585 56.9801 16.9004 56.871 17.9423C56.797 18.6382 56.7503 19.3341 56.6879 20.03C56.649 20.4782 56.61 20.9264 56.5555 21.3707C56.3841 22.7349 56.1971 24.0953 56.0296 25.4596C55.9322 26.2538 55.8582 27.0479 55.7725 27.8461C55.7374 28.1685 55.7063 28.4909 55.6712 28.8133C55.5582 29.9298 55.4452 31.0504 55.3284 32.1669C55.2193 33.1852 55.1024 34.2035 54.9934 35.2218C54.9466 35.67 54.9077 36.1182 54.8804 36.5664C54.8298 37.3646 54.7908 38.1627 54.7479 38.9608C54.7168 39.2046 54.6506 39.4405 54.4908 39.6999Z" fill="black"></path>
<path d="M9.91037 20.0259C10.0623 20.1557 10.1324 20.2304 10.2103 20.2815C11.3907 21.0521 12.1581 22.1647 12.8048 23.3953C13.1943 24.1423 13.3384 24.9522 13.5215 25.7504C13.7553 26.7805 13.7708 27.8263 13.7241 28.8799C13.6774 29.9336 13.5761 30.9755 13.3462 32.0017C13.2372 32.4853 13.0696 32.9571 12.9177 33.4328C12.8437 33.6687 12.7463 33.9006 12.6606 34.1326C12.5476 34.4353 12.4736 34.7577 12.3139 35.033C11.975 35.6148 11.6088 36.181 11.2193 36.7275C10.8414 37.2622 10.2688 37.5964 9.78182 38.0171C8.92481 38.7601 7.91586 39.2123 6.86407 39.6094C6.22131 39.8492 5.55517 39.8571 4.90462 39.9829C4.76049 40.0104 4.60466 40.0025 4.46053 39.975C3.89568 39.8728 3.32693 39.9278 2.75818 39.9121C2.01803 39.8885 1.27788 39.8295 0.541627 39.7352C0.0663722 39.6762 -0.00374732 39.5701 0.000148214 39.0983C0.0118348 38.1979 0.0507901 37.2976 0.0780588 36.4012C0.0936409 35.9765 0.117014 35.5519 0.132596 35.1273C0.171552 34.0776 0.210507 33.0318 0.245567 31.982C0.284522 30.7593 0.307895 29.5326 0.358537 28.3099C0.389701 27.437 0.413074 26.5603 0.510463 25.6914C0.666284 24.2996 0.802627 22.9039 0.798732 21.5042C0.798732 20.4545 0.884433 19.4126 0.915598 18.3668C0.93118 17.7416 1.02078 17.1244 1.05584 16.4992C1.11427 15.3748 1.14154 14.2503 1.20776 13.1259C1.27399 11.9543 1.37137 10.7866 1.45318 9.61495C1.46876 9.39085 1.48824 9.16675 1.49603 8.94265C1.55057 7.39358 1.59732 5.84452 1.65575 4.29546C1.68302 3.54452 1.72587 2.79751 1.76093 2.0505C1.77261 1.76742 1.84663 1.50793 2.05309 1.25238C2.58678 1.18947 3.14774 1.09904 3.71259 1.05579C5.15004 0.945708 6.58749 1.00075 8.01325 1.20126C9.02609 1.3428 9.96881 1.73597 10.8959 2.16451C11.1219 2.26674 11.34 2.38075 11.5621 2.49084C12.3295 2.884 12.9567 3.43443 13.4086 4.17751C13.9189 5.01495 14.2734 5.90743 14.4058 6.89427C14.5188 7.73564 14.7175 8.56521 14.6785 9.42231C14.6551 9.99632 14.5655 10.5664 14.5461 11.1404C14.5032 12.3474 14.2227 13.5112 13.9228 14.6632C13.6812 15.5792 13.2761 16.4403 12.7113 17.2109C12.4931 17.5136 12.2555 17.8045 12.0724 18.1269C11.6478 18.8661 11.0167 19.3693 10.2921 19.7782C10.187 19.8411 10.0857 19.9119 9.91037 20.0259ZM4.52675 34.6673C4.68257 34.7027 4.76049 34.7459 4.82671 34.7341C5.42662 34.5965 6.0499 34.51 6.62255 34.2899C7.2731 34.0382 7.83406 33.594 8.17686 32.9531C8.95207 31.5023 9.4507 29.9769 9.24424 28.2941C9.22476 28.1211 9.22087 27.9442 9.22866 27.7712C9.25593 27.2326 9.11179 26.7254 8.90922 26.2458C8.4028 25.0348 7.52242 24.2564 6.21741 24.0322C5.90577 23.9811 5.57855 24.0087 5.25911 24.0283C5.0994 24.0362 4.99811 24.1581 4.96695 24.3232C4.95137 24.4215 4.93578 24.5198 4.92799 24.622C4.87346 25.5931 4.80723 26.5642 4.76828 27.5353C4.67478 29.7056 4.58908 31.8759 4.50338 34.0461C4.49559 34.2388 4.51896 34.4314 4.52675 34.6673ZM5.53959 16.4874C6.11613 16.3695 6.64203 16.3223 7.12118 16.1454C7.92755 15.8505 8.63654 15.3591 9.02219 14.5649C9.45849 13.6685 9.73897 12.7013 9.93375 11.7262C10.1402 10.6962 10.1363 9.63855 9.9766 8.59666C9.88311 7.97153 9.64937 7.38965 9.17412 6.94931C8.53915 6.3635 7.78342 6.00572 6.94977 5.82486C6.69267 5.76982 6.41998 5.7305 6.13171 5.86025C6.12002 6.02144 6.10834 6.16691 6.10055 6.31238C6.07328 6.83529 6.0538 7.3582 6.01485 7.88111C5.95641 8.60059 5.86682 9.31615 5.81617 10.0356C5.74605 11.0539 5.69541 12.0762 5.63698 13.0944C5.60581 13.6685 5.57465 14.2386 5.55128 14.8126C5.52401 15.3355 5.46558 15.8545 5.53959 16.4874Z" fill="black"></path>
<path d="M19.2129 27.3937C19.0999 27.7868 19.0337 28.1249 19.0181 28.4748C18.9753 29.3477 18.9324 30.2205 18.8857 31.0972C18.8234 32.2217 18.7571 33.3422 18.6948 34.4667C18.6091 36.0393 18.5273 37.612 18.4416 39.1807C18.4182 39.6014 18.313 39.7193 17.9001 39.7311C16.7626 39.7626 15.6212 39.7822 14.4837 39.8019C14.4409 39.8019 14.3941 39.7665 14.3006 39.7232C14.2851 39.5856 14.2383 39.4205 14.2461 39.2554C14.2968 38.0562 14.2968 36.8532 14.4214 35.6619C14.6006 33.9713 14.6279 32.2728 14.7798 30.5783C14.8188 30.1301 14.8811 29.6858 14.92 29.2376C14.9746 28.6164 15.0486 27.9913 15.0564 27.3701C15.0875 24.9914 15.2784 22.6285 15.5862 20.2695C15.6095 20.0965 15.6095 19.9196 15.6173 19.7466C15.6446 19.0704 15.7264 18.4059 15.8355 17.7376C15.9562 16.9984 16.0108 16.2514 16.0809 15.5044C16.1705 14.5844 16.2562 13.6683 16.338 12.7483C16.4627 11.329 16.5795 9.91362 16.7042 8.4943C16.7899 7.54677 16.8873 6.60318 16.9886 5.65959C17.008 5.46301 17.0626 5.26643 17.1015 5.06985C17.16 4.79463 17.3314 4.63343 17.6041 4.58626C17.8222 4.55087 18.0442 4.51155 18.2663 4.50369C19.1077 4.4801 19.9492 4.4801 20.7906 4.45651C21.4879 4.43685 22.1813 4.50369 22.8591 4.63343C23.5915 4.77104 24.2849 5.06985 24.8848 5.52198C26.4352 6.68968 27.2143 8.30165 27.3351 10.2085C27.4403 11.8283 27.4208 13.4639 27.1286 15.0641C26.778 16.9788 26.3612 18.8856 25.4458 20.6352C24.951 21.5866 24.2927 22.3769 23.3305 22.8762C23.1318 22.9784 22.937 23.0846 22.8513 23.3559C22.9253 23.4345 22.9955 23.5406 23.0929 23.6075C23.5915 23.9417 23.8914 24.4213 24.094 24.9718C24.5965 26.336 24.951 27.7239 25.025 29.1943C25.0874 30.4643 25.251 31.7302 25.4263 32.9923C25.5821 34.0971 26.4157 34.8716 27.5143 35.0171C27.8805 35.0643 28.2544 35.0761 28.6245 35.0761C32.0682 35.08 35.5157 35.08 38.9593 35.0839C39.2009 35.0839 39.4463 35.1036 39.719 35.1114C39.8553 35.6383 39.7034 36.1297 39.7034 36.6212C39.7034 37.0969 39.6683 37.5726 39.6411 38.0444C39.6099 38.5398 39.567 39.0391 39.5281 39.5778C39.3138 39.6092 39.1269 39.6603 38.9399 39.6643C37.8764 39.68 36.809 39.6918 35.7416 39.6879C34.3548 39.6839 32.968 39.6643 31.5812 39.6525C29.649 39.6367 27.7169 39.6564 25.7847 39.6014C23.9966 39.5503 22.6293 38.6656 21.6398 37.1991C21.2775 36.6605 21.0983 36.0236 21.0087 35.3709C20.8296 34.0302 20.7516 32.6817 20.7984 31.3292C20.8296 30.4131 20.6348 29.5443 20.3933 28.6754C20.2374 28.0502 19.7583 27.7278 19.2129 27.3937ZM20.1245 19.7899C20.6971 19.4714 21.1568 19.1844 21.4645 18.7205C21.9748 17.9499 22.3995 17.136 22.6215 16.2278C22.9253 14.9894 23.0929 13.7312 23.0539 12.4495C23.0461 12.2018 23.0188 11.9463 23.05 11.7025C23.1279 11.0341 22.8747 10.468 22.5007 9.96079C22.1852 9.53618 21.7528 9.25703 21.1529 9.2649C21.0477 9.84285 20.9153 10.3972 20.8451 10.9594C20.7439 11.8008 20.6854 12.6461 20.6114 13.4914C20.44 15.4533 20.2686 17.4152 20.1011 19.3771C20.0933 19.4793 20.1128 19.5776 20.1245 19.7899Z" fill="black"></path>
<path d="M85.9667 4.57054C87.2444 4.46046 88.4326 4.49191 89.6168 4.45259C89.9557 4.4408 90.3063 4.42507 90.6764 4.55089C90.7075 4.69636 90.766 4.83789 90.7621 4.9755C90.727 5.87584 90.7504 6.77226 90.84 7.66867C90.8712 7.96747 90.8439 8.26628 90.8556 8.56508C90.8906 9.56371 90.8595 10.5623 91.0036 11.5571C91.062 11.9502 91.027 12.3552 91.0348 12.7562C91.0387 12.9292 91.0309 13.1061 91.0426 13.2791C91.14 14.6984 91.2568 16.1177 91.3425 17.5371C91.4087 18.6576 91.4399 19.782 91.4905 20.9065C91.5022 21.1817 91.5373 21.453 91.5568 21.7282C91.6308 22.7504 91.7126 23.7687 91.7671 24.7909C91.8295 26.0137 91.8411 27.2364 92.0125 28.4513C92.0554 28.7461 92.0437 29.0489 92.071 29.3477C92.106 29.7173 92.1567 30.0868 92.2969 30.4643C92.332 30.3188 92.367 30.1733 92.3982 30.0279C92.5501 29.2926 92.7137 28.5614 92.854 27.8261C92.9747 27.1892 93.0994 26.5484 93.1656 25.9036C93.2942 24.6572 93.5396 23.4345 93.824 22.2196C94.1278 20.9065 94.4161 19.5894 94.7122 18.2723C95.0199 16.9119 95.2887 15.5398 95.6705 14.1952C95.8964 13.4049 96.1184 12.6107 96.3015 11.8087C96.5898 10.5427 96.8508 9.26884 97.1157 7.99893C97.3338 6.94918 97.5403 5.8955 97.7624 4.81037C97.8714 4.78285 97.9883 4.73174 98.1013 4.73174C99.0674 4.72388 100.033 4.72781 101 4.72781C101.175 4.72781 101.346 4.72781 101.522 4.73174C102.192 4.74747 102.281 4.87328 102.149 5.55345C101.841 7.11824 101.545 8.68696 101.225 10.2518C101.05 11.1088 100.84 11.9541 100.637 12.8034C100.38 13.8964 100.096 14.9815 99.8542 16.0784C99.6127 17.1754 99.4063 18.2801 99.1842 19.381C99.1297 19.6483 99.0829 19.9196 99.0245 20.187C98.7986 21.2367 98.5687 22.2825 98.335 23.3284C97.9844 24.8853 97.6182 26.4422 97.2793 28.0031C97.1352 28.6596 97.0651 29.3359 96.9248 29.9925C96.6755 31.1366 96.3911 32.2728 96.134 33.4169C95.8224 34.8048 95.5341 36.2005 95.2303 37.5884C95.1134 38.1231 94.9771 38.6578 94.8407 39.1886C94.8056 39.3301 94.7433 39.4677 94.6771 39.6486C94.4122 39.68 94.1434 39.7311 93.8785 39.7429C93.4072 39.7626 92.9358 39.7586 92.4683 39.7547C91.6269 39.7468 90.7855 39.7351 89.944 39.7193C89.648 39.7154 89.348 39.7154 89.0558 39.68C88.5611 39.621 88.4248 39.4795 88.3391 38.988C88.1949 38.1506 88.043 37.3132 87.9222 36.4757C87.8521 35.9843 87.8249 35.481 87.7859 34.9856C87.6807 33.5663 87.5833 32.147 87.4743 30.7277C87.4392 30.307 87.3574 29.8863 87.3106 29.4656C87.1782 28.2232 87.0419 26.9808 86.925 25.7384C86.8821 25.2666 86.886 24.7909 86.8666 24.3152C86.8276 23.4188 86.8159 22.5184 86.7302 21.622C86.5354 19.6326 86.5393 17.6275 86.3601 15.6381C86.3056 15.0405 86.2978 14.4389 86.2783 13.8413C86.2316 12.3434 86.1926 10.8454 86.142 9.34748C86.0952 7.94781 86.0329 6.55209 85.9784 5.15242C85.9589 4.99909 85.9667 4.8261 85.9667 4.57054Z" fill="black"></path>
<path d="M56.5944 39.8494C56.4152 39.5782 56.462 39.3265 56.4814 39.0828C56.5282 38.5088 56.5905 37.9387 56.6334 37.3647C56.6879 36.6688 56.7697 35.9689 56.7775 35.273C56.797 33.547 57.0112 31.8328 57.1359 30.1147C57.2177 28.9706 57.3774 27.8304 57.4943 26.6863C57.5683 25.9668 57.6384 25.2434 57.7046 24.5239C57.8059 23.4821 57.8994 22.4362 58.0046 21.3944C58.0981 20.4744 58.2111 19.5583 58.2929 18.6383C58.398 17.4706 58.4643 16.299 58.5772 15.1313C58.6863 14.0383 58.8343 12.9492 58.9668 11.8602C59.0992 10.7436 59.2317 9.63092 59.3563 8.51434C59.4771 7.42134 59.5784 6.32442 59.703 5.23536C59.7654 4.69672 59.9368 4.54732 60.4744 4.52373C61.5885 4.47655 62.7026 4.57091 63.8089 4.67313C64.105 4.70065 64.4011 4.74783 64.6971 4.75177C65.8969 4.76749 66.9643 5.18031 67.9499 5.84083C68.3706 6.12391 68.7134 6.47382 68.9666 6.91416C69.6133 8.02288 70.1158 9.19058 70.2911 10.4684C70.3963 11.2311 70.4158 12.0135 70.4196 12.7841C70.4274 13.5822 70.3963 14.3843 70.3417 15.1824C70.2482 16.4523 70.2015 17.7262 69.9833 18.9843C69.9132 19.401 69.886 19.8296 69.8821 20.2542C69.8704 21.4337 69.699 22.5935 69.5315 23.7573C69.4341 24.4492 69.3873 25.1451 69.2977 25.8371C69.2237 26.4033 69.103 26.9655 69.0211 27.5316C68.8926 28.3966 68.7835 29.2616 68.6589 30.1226C68.4485 31.5773 68.2693 33.0399 67.8252 34.4513C67.4123 35.7684 66.8358 37.0069 66.0606 38.151C65.858 38.4459 65.6048 38.666 65.3126 38.8665C64.3426 39.531 63.2947 39.9084 62.1027 39.8494C61.7833 39.8337 61.4599 39.873 61.1366 39.873C59.8004 39.8848 58.4643 39.9006 57.1281 39.9045C56.9528 39.9084 56.7619 39.8691 56.5944 39.8494ZM63.5051 8.67947C63.4505 8.89177 63.396 9.03331 63.3843 9.17878C63.2207 10.9716 63.0688 12.7644 62.9052 14.5533C62.7766 15.9962 62.6481 17.4391 62.5078 18.8821C62.3637 20.3997 62.1962 21.9133 62.0559 23.4309C61.9157 24.9721 61.8105 26.5212 61.6664 28.0624C61.456 30.3506 61.2262 32.6388 61.0042 34.927C60.9964 35.0253 60.9886 35.1276 60.9964 35.2258C61.008 35.3635 61.1015 35.4775 61.2301 35.4735C61.9819 35.446 62.6403 35.2455 63.0142 34.4946C63.3376 33.8458 63.6219 33.1893 63.7388 32.4619C63.8985 31.479 64.0738 30.4961 64.253 29.5132C64.3465 28.9981 64.4829 28.487 64.5491 27.9681C64.8412 25.7152 65.0867 23.4585 65.1802 21.1821C65.2152 20.3328 65.3243 19.4915 65.3944 18.6462C65.4567 17.8991 65.5191 17.1521 65.5619 16.4051C65.6165 15.4576 65.6632 14.5101 65.6983 13.5626C65.7333 12.5403 65.7489 11.5181 65.7723 10.4919C65.7762 10.3937 65.7645 10.2914 65.7528 10.1931C65.6749 9.47759 64.9893 8.64801 64.0816 8.67553C63.918 8.6834 63.7466 8.67947 63.5051 8.67947Z" fill="black"></path>
<path d="M35.0482 24.4296C34.1211 24.5318 33.2602 24.3824 32.3954 24.4925C32.224 24.7795 32.1811 25.0744 32.1266 25.3653C31.8071 27.0323 31.4838 28.6954 31.1683 30.3624C31.0904 30.7792 31.0319 31.1998 30.954 31.6166C30.8995 31.9075 30.8216 32.1906 30.7631 32.4501C30.6696 32.4855 30.6229 32.513 30.5762 32.513C29.4348 32.513 28.2973 32.5051 27.1559 32.5012C26.9221 32.5012 26.7118 32.4737 26.5326 32.1788C26.6767 31.3335 26.8131 30.4214 26.9923 29.521C27.487 27.0009 27.9973 24.4807 28.5076 21.9644C28.8193 20.4232 29.127 18.882 29.4737 17.3487C29.7113 16.3029 30.0308 15.2767 30.2996 14.2349C30.5489 13.2677 30.806 12.3005 30.9969 11.3254C31.1527 10.5431 31.3436 9.76852 31.4565 8.97433C31.6279 7.79091 31.9162 6.62321 32.146 5.44372C32.2123 5.10167 32.372 4.84218 32.7187 4.62201C34.0432 4.59842 35.4222 4.57877 36.8363 4.55518C36.8947 4.75569 36.9648 4.91295 36.9882 5.07808C37.2024 6.58783 37.4089 8.09758 37.6193 9.60732C37.6621 9.92972 37.7206 10.2482 37.7556 10.5706C37.9192 12.1865 38.0673 13.8024 38.2426 15.4183C38.3438 16.3619 38.488 17.3015 38.6048 18.2412C38.6321 18.4653 38.6438 18.6894 38.6672 18.9135C38.7529 19.7824 38.8386 20.6513 38.9282 21.5241C39.0411 22.5896 39.1541 23.659 39.2788 24.7244C39.3917 25.7191 39.5242 26.7099 39.641 27.7007C39.8202 29.2104 39.9994 30.7241 40.1747 32.2142C39.9839 32.4344 39.7423 32.454 39.5359 32.454C38.449 32.4737 37.3583 32.4619 36.2675 32.458C36.2208 32.458 36.174 32.4344 36.065 32.4029C35.8351 31.9665 35.804 31.4357 35.7416 30.9286C35.5936 29.7137 35.4767 28.4949 35.3482 27.28C35.2664 26.4858 35.1962 25.6877 35.1183 24.8935C35.1105 24.7716 35.0833 24.6537 35.0482 24.4296ZM34.1484 15.3514C33.7237 16.9713 33.3731 18.4771 33.1978 20.0576C33.7121 20.0773 34.1678 20.152 34.6626 19.979C34.5379 18.5243 34.4132 17.0931 34.2847 15.662C34.2808 15.5952 34.2341 15.5323 34.1484 15.3514Z" fill="black"></path>
<path d="M72.6089 1.18158C72.9089 1.15406 73.1309 1.11475 73.3491 1.11475C74.4866 1.12654 75.628 1.15013 76.7655 1.17372C76.8356 1.17372 76.9018 1.21697 77.0187 1.25628C77.0732 1.6927 77.0498 2.1409 77.0265 2.58124C76.9797 3.63099 76.8862 4.6768 76.82 5.72262C76.7888 6.19835 76.7577 6.67014 76.746 7.14587C76.7226 8.27032 76.6369 9.39083 76.4733 10.5035C76.4188 10.8731 76.4266 11.2505 76.4032 11.624C76.3136 13.0197 76.2201 14.4155 76.1305 15.8112C76.0915 16.4088 76.0721 17.0103 76.0292 17.6079C75.9318 18.8779 75.8267 20.1478 75.7254 21.4177C75.6397 22.491 75.5306 23.5604 75.4722 24.6338C75.3748 26.4305 75.3163 28.2312 75.2228 30.028C75.141 31.5259 75.0281 33.0199 74.9307 34.514C74.919 34.683 74.9307 34.856 74.9307 34.9936C75.2073 35.2334 75.4916 35.1863 75.7565 35.1981C76.524 35.2256 77.2914 35.2334 78.0588 35.2374C79.2703 35.2492 80.4857 35.2413 81.6972 35.261C82.2387 35.2688 82.7802 35.3278 83.3217 35.3671C83.532 35.9058 83.3022 36.3933 83.3061 36.8847C83.3139 37.3605 83.271 37.8362 83.2593 38.308C83.2476 38.8073 83.2632 39.3066 83.1191 39.8295C82.9282 39.8492 82.7334 39.8846 82.5425 39.8846C80.361 39.9121 78.1834 39.9317 76.0058 39.7863C75.1177 39.7273 74.2217 39.7705 73.3335 39.7509C72.2934 39.7312 71.2533 39.6919 70.2132 39.6565C70.0924 39.6526 69.9756 39.6094 69.847 39.5858C69.7263 39.2791 69.7769 38.9803 69.7964 38.6854C69.8899 37.2386 69.9561 35.7878 70.0963 34.3449C70.2288 33.0042 70.2755 31.6557 70.4391 30.315C70.5677 29.2495 70.5677 28.1683 70.6417 27.0989C70.7547 25.428 70.8754 23.7609 71.0079 22.09C71.0702 21.2919 71.1754 20.4977 71.2338 19.7035C71.2767 19.1059 71.2533 18.5044 71.3039 17.9067C71.3974 16.7862 71.5221 15.6696 71.6312 14.5491C71.6429 14.4233 71.6623 14.3014 71.6701 14.1756C71.7636 12.831 71.8571 11.4825 71.9467 10.1378C72.0675 8.34109 72.1765 6.54826 72.309 4.75151C72.383 3.59167 72.4999 2.42398 72.6089 1.18158Z" fill="black"></path>
<path d="M105.982 23.9497C105.721 27.7831 105.183 31.5417 104.969 35.3082C105.234 35.4851 105.479 35.4655 105.725 35.4655C106.617 35.4537 107.505 35.4615 108.397 35.4615C108.518 35.4615 108.639 35.4773 108.794 35.4891C108.822 35.6503 108.876 35.7918 108.861 35.9294C108.732 37.219 108.666 38.5203 108.378 39.8217C108.3 39.8414 108.206 39.8964 108.117 39.8886C107.178 39.8296 106.235 39.8807 105.296 39.8846C104.108 39.8886 102.92 39.8492 101.732 39.8335C101.409 39.8296 101.089 39.8414 100.766 39.8571C100.54 39.865 100.322 39.8571 100.143 39.692C100.127 39.6487 100.092 39.6015 100.1 39.5583C100.349 37.7773 100.415 35.9805 100.552 34.1877C100.641 32.9925 100.781 31.8012 100.898 30.6099C101.031 29.2692 101.144 27.9246 101.299 26.5839C101.518 24.7243 101.775 22.8685 101.997 21.0089C102.137 19.8451 102.25 18.6735 102.363 17.5058C102.534 15.7641 102.702 14.0263 102.869 12.2846C102.885 12.1116 102.916 11.9347 102.916 11.7617C102.92 10.7827 103.064 9.81944 103.193 8.85619C103.345 7.69242 103.52 6.52866 103.536 5.34917C103.536 5.27447 103.543 5.19977 103.555 5.12507C103.59 4.90883 103.703 4.74763 103.929 4.71618C104.295 4.669 104.669 4.61002 105.035 4.61396C106.695 4.62575 108.354 4.66114 110.01 4.68866C110.61 4.86951 111.237 4.74763 111.814 4.82626C112.016 5.03857 112.004 5.27447 111.997 5.49071C111.954 6.70952 111.997 7.93225 111.794 9.16285C110.298 9.21397 108.849 9.26115 107.388 9.31226C107.338 9.45379 107.267 9.56388 107.256 9.68183C106.909 12.78 106.558 15.882 106.364 18.9919C106.625 19.1885 106.905 19.161 107.17 19.1649C108.062 19.1846 108.95 19.1924 109.842 19.2042C110.064 19.2082 110.294 19.1924 110.516 19.4205C110.532 19.6131 110.586 19.8608 110.567 20.1007C110.462 21.2683 110.341 22.436 110.22 23.6037C110.209 23.6981 110.173 23.7925 110.142 23.9183C109.694 24.0008 109.254 23.9497 108.818 23.9065C107.902 23.82 106.995 23.8239 105.982 23.9497Z" fill="black"></path>
<path d="M77.6381 32.6934C77.4667 32.4221 77.5407 32.1666 77.5485 31.9228C77.5796 30.9753 77.6186 30.0238 77.6653 29.0763C77.7121 28.1524 77.7744 27.2324 77.8328 26.3085C77.9108 25.1132 77.9848 23.918 78.0744 22.7228C78.1679 21.4529 78.273 20.1869 78.3899 18.917C78.5457 17.25 78.6392 15.579 78.7288 13.9081C78.8106 12.3394 78.9275 10.7667 79.1028 9.20193C79.2313 8.03423 79.3677 6.87047 79.469 5.70277C79.5547 4.71593 79.6676 4.61764 80.6493 4.58619C81.5648 4.55474 82.4802 4.51542 83.3957 4.4879C83.6372 4.48004 83.8787 4.50363 84.1553 4.51542C84.1748 4.70414 84.2137 4.84961 84.202 4.98722C84.1163 6.28466 84.0189 7.57816 83.9254 8.87167C83.9099 9.07218 83.8865 9.26876 83.8826 9.46928C83.832 11.3918 83.6333 13.3065 83.4112 15.2134C83.3255 15.9565 83.2983 16.7074 83.2359 17.4544C83.2048 17.8515 83.1697 18.2486 83.1191 18.6457C82.936 20.0847 82.9087 21.5315 82.8386 22.9784C82.7685 24.4488 82.6633 25.9192 82.5815 27.3897C82.5347 28.2625 82.5231 29.1392 82.4646 30.0081C82.414 30.7551 82.3205 31.4982 82.2348 32.2413C82.1997 32.5322 82.0361 32.6856 81.7556 32.7327C81.6349 32.7524 81.5102 32.7524 81.3856 32.7524C80.2948 32.7524 79.2041 32.7563 78.1172 32.7485C77.9458 32.7563 77.7783 32.7131 77.6381 32.6934Z" fill="black"></path>
</svg>